HIERARCHY
ROOT pelvis
{
  OFFSET 0 100 0
  CHANNELS 6 Xposition Yposition Zposition Zrotation Xrotation Yrotation
  JOINT pelvis_right_femur
  {
    OFFSET -10.78128 -3.44521 -0.5502486
    CHANNELS 3 Zrotation Xrotation Yrotation
    JOINT right_femur_tibia
    {
      OFFSET -0.8047443 -44.0398 -0.1307829
      CHANNELS 3 Zrotation Xrotation Yrotation
      JOINT right_tibia_foot
      {
        OFFSET 3.006224 -47.83518 -5
        CHANNELS 3 Zrotation Xrotation Yrotation
        End Site
        {
          OFFSET 0 -5 15
        }
      }
    }
  }
  JOINT pelvis_left_femur
  {
    OFFSET 10.78128 -3.44521 -0.5502486
    CHANNELS 3 Zrotation Xrotation Yrotation
    JOINT left_femur_tibia
    {
      OFFSET 0.8047443 -44.0398 -0.1307829
      CHANNELS 3 Zrotation Xrotation Yrotation
      JOINT left_tibia_foot
      {
        OFFSET -4.370144 -48.10324 -4.275266
        CHANNELS 3 Zrotation Xrotation Yrotation
        End Site
        {
          OFFSET 0 -5 15
        }
      }
    }
  }
  JOINT pelvis_spine1
  {
    OFFSET 0 6.468898 -3.129235
    CHANNELS 3 Zrotation Xrotation Yrotation
    JOINT spine1
    {
      OFFSET 0 23.15396 4.99043
      CHANNELS 3 Zrotation Xrotation Yrotation
      JOINT spine2
      {
        OFFSET 0 20.79997 -5.064912
        CHANNELS 3 Zrotation Xrotation Yrotation
        JOINT neck
        {
          OFFSET 0 14.38658 9.616178
          CHANNELS 3 Zrotation Xrotation Yrotation
          End Site
          {
            OFFSET 0 20 0
          }
        }
      }
      JOINT right_manubrium
      {
        OFFSET -5.722621 16.35077 3.967754
        CHANNELS 3 Zrotation Xrotation Yrotation
        JOINT right_clavicle
        {
          OFFSET -13.16364 1.694482 -4.693211
          CHANNELS 3 Zrotation Xrotation Yrotation
          JOINT right_humerus
          {
            OFFSET -28.5034 -0.3100689 -2.792744
            CHANNELS 3 Zrotation Xrotation Yrotation
            JOINT right_radius
            {
              OFFSET -25.15693 0.02248979 -1.271978
              CHANNELS 3 Zrotation Xrotation Yrotation
              End Site
              {
                OFFSET -15 0 0
              }
            }
          }
        }
      }
      JOINT left_manubrium
      {
        OFFSET 5.722621 16.35077 3.967754
        CHANNELS 3 Zrotation Xrotation Yrotation
        JOINT left_clavicle
        {
          OFFSET 13.16364 1.694482 -4.693211
          CHANNELS 3 Zrotation Xrotation Yrotation
          JOINT left_humerus
          {
            OFFSET 29.39168 -1.063119 -2.237045
            CHANNELS 3 Zrotation Xrotation Yrotation
            JOINT left_radius
            {
              OFFSET 24.59957 -0.9528479 0.9047498
              CHANNELS 3 Zrotation Xrotation Yrotation
              End Site
              {
                OFFSET 15 -0 -0
              }
            }
          }
        }
      }
    }
  }
}
MOTION
Frames: 9
Frame Time: 0.0416666666667
0 103.5113 0 0.8230194 -1.133357 -0.05291522 3.385291 -17.6032 8.399977 -0 36.46011 -0 -5.495298 -16.34482 -3.886098 -6.641937 12.15638 -23.4234 -0 5.337742 -0 5.053812 -19.00405 24.88449 -3.226585 -3.425655 3.839347 3.354973 7.490481 -9.160549 0.4578262 19.78101 8.858455 4.037903 -27.03037 9.871604 6.540379 -18.50174 12.08749 82.62509 32.02856 -16.47973 -0 0 19.37028 -10.47988 10.78162 5.886483 8.852837 -20.72957 5.2892 -94.92001 19.05554 22.19733 0 0 -6.339371 11.86268 19.69665 -2.685385
0.2124486 103.4508 1.561976 -0.1355606 -0.517867 -0.1866561 4.525963 -20.63348 8.976249 -0 37.29572 -0 -6.160111 -14.01715 -4.327977 -5.821672 11.90507 -22.75534 -0 6.293616 -0 2.644086 -20.66843 23.82807 -3.084608 -3.33257 3.698606 3.470191 7.562167 -9.294303 0.4498615 19.52606 9.031938 4.163252 -27.14832 9.952645 6.480908 -18.41905 12.21473 83.09895 32.11682 -17.11374 -0 0 18.90252 -10.39089 10.86081 5.97644 8.911216 -20.98869 4.980207 -94.25481 18.79182 21.26093 0 0 -8.23816 11.94365 19.06598 -2.69847
0.4352053 103.2381 3.369744 -0.5549381 0.5497614 -0.2655318 5.404897 -24.59892 8.870051 -0 33.97939 -0 -6.180293 -12.35663 -4.171022 -5.549137 11.8702 -21.65206 -0 6.110734 -0 3.141574 -21.59129 23.119 -2.947061 -3.029085 3.737204 3.429397 7.922232 -9.173074 0.4395326 19.58186 9.054215 4.279294 -27.01321 9.831465 6.027247 -18.27817 12.31211 84.0323 32.73019 -17.59104 -0 0 17.47522 -11.28394 10.86168 6.567745 8.634402 -21.44587 4.029691 -93.22627 18.89264 20.12864 0 0 -10.66548 11.54645 17.35173 -2.121148
0.6676611 102.748 5.599867 -0.7188482 1.585791 -0.2488679 5.885357 -28.52234 8.088568 -0 28.67729 -0 -6.069102 -10.5202 -3.764575 -5.477224 12.18326 -20.20204 -0 5.788502 -0 4.103358 -22.38019 22.12727 -2.818477 -2.8453 3.673323 3.487753 8.091478 -9.18919 0.4498519 19.49771 9.124379 4.362541 -27.04604 9.856802 5.847764 -18.1645 12.38115 84.65083 33.09828 -18.16095 -0 0 16.60053 -11.38861 10.84005 6.724054 8.535321 -21.73044 3.456111 -92.43342 18.87083 19.10582 0 0 -12.7183 11.60232 16.33282 -2.040613
0.8991146 102.0182 8.323199 -0.8286314 2.640503 -0.1103438 6.333083 -32.14607 7.418625 -0 23.35885 -0 -5.868565 -8.78833 -3.390258 -5.474272 12.75833 -18.88501 -0 5.909489 -0 5.058199 -22.99843 21.19413 -2.701205 -2.652342 3.628191 3.539476 8.263975 -9.17599 0.4742295 19.46281 9.14798 4.410798 -27.0739 9.886324 5.686507 -18.05274 12.41327 85.23595 33.53504 -18.69474 -0 0 15.69973 -11.39211 10.77242 6.812473 8.400099 -21.96337 2.855996 -91.67071 18.93693 18.13684 0 0 -14.66806 11.74197 15.32176 -2.015339
1.115886 101.1367 11.64008 -0.9662163 3.595599 0.1868779 6.786427 -35.07543 6.787401 -0 18.61166 -0 -5.768299 -6.811205 -2.998029 -5.479278 13.56692 -17.65822 -0 6.910292 -0 5.55968 -23.32594 20.1205 -2.600494 -2.48296 3.578955 3.599922 8.399815 -9.164924 0.5049876 19.43169 9.155576 4.434097 -27.11881 9.935035 5.577574 -17.95633 12.42641 85.72564 33.95062 -19.18104 -0 0 14.921 -11.246 10.69042 6.823556 8.273383 -22.12378 2.326857 -91.0021 19.01267 17.29209 0 0 -16.40425 11.96247 14.46343 -2.069595
1.309325 100.2547 15.64126 -1.24805 4.407192 0.6835417 7.369909 -36.94353 6.30234 -0 15.15644 -0 -5.889667 -4.661176 -2.600264 -5.386823 14.48727 -16.59359 -0 9.166168 -0 5.034121 -23.21702 18.63736 -2.512857 -2.319305 3.548091 3.648127 8.538433 -9.130655 0.5435598 19.43573 9.123144 4.427064 -27.14499 9.974849 5.485331 -17.87177 12.4136 86.16705 34.37654 -19.61022 -0 0 14.17802 -11.05793 10.59483 6.806585 8.122325 -22.23072 1.802616 -90.40551 19.14264 16.57732 0 0 -17.93726 12.19539 13.6632 -2.115222
1.478175 99.54507 20.38846 -1.724843 4.955533 1.390494 8.037566 -37.21075 5.883246 -0 13.40681 -0 -6.319273 -2.672588 -2.191022 -5.086026 15.31479 -15.68199 -0 12.97337 -0 2.931102 -22.36517 16.38049 -2.436935 -2.167064 3.538914 3.676668 8.687417 -9.076161 0.587077 19.47333 9.050086 4.39293 -27.13605 9.992024 5.405264 -17.79862 12.37833 86.56365 34.78027 -19.98034 -0 0 13.48433 -10.87997 10.50379 6.782498 7.952626 -22.29601 1.291562 -89.8967 19.31933 16.01602 0 0 -19.21793 12.3925 12.93961 -2.107564
1.628536 99.16941 25.8642 -2.37226 5.120281 2.232845 8.683841 -35.50251 5.491642 -0 13.46809 -0 -7.031687 -1.477092 -1.840907 -4.470377 15.702 -14.83604 -0 18.52603 -0 -0.7772971 -20.26169 13.29169 -2.369548 -2.028167 3.560437 3.673166 8.863684 -9.000598 0.6337742 19.5509 8.928222 4.333311 -27.06465 9.965241 5.330742 -17.73221 12.32045 86.92634 35.13634 -20.29351 -0 0 12.83324 -10.77966 10.43528 6.772638 7.764683 -22.33796 0.7880045 -89.4857 19.54967 15.62343 0 0 -20.20028 12.49766 12.29767 -1.989481
